<?xml version="1.0" encoding="UTF-8"?>
<svg width="140px" height="39px" viewBox="0 0 140 39" version="1.1" xmlns="http://www.w3.org/2000/svg" xmlns:xlink="http://www.w3.org/1999/xlink">
    <!-- Generator: Sketch 51.3 (57544) - http://www.bohemiancoding.com/sketch -->
    <title>Group 2</title>
    <desc>Created with Sketch.</desc>
    <defs></defs>
    <g id="Page-1" stroke="none" stroke-width="1" fill="none" fill-rule="evenodd">
        <g id="Artboard-2-Copy" transform="translate(-7.000000, -15.000000)">
            <g id="Group-2" transform="translate(8.000000, 16.000000)">
                <g id="Group" transform="translate(48.000000, 8.000000)" fill="#FFFFFF" fill-rule="nonzero">
                    <g id="logo">
                        <g id="Lernit-" transform="translate(0.077898, 0.563101)">
                            <path d="M0,0.0188933633 L0,3.15926658 L1.15354913,3.15926658 C1.15354913,3.15926658 1.87451734,3.08623465 1.87451734,3.96261787 L1.87451734,18.1308133 C1.87451734,18.1308133 1.7303237,19.3723562 3.10016329,19.4453882 L12.3281558,19.4453882 C12.3281558,19.4453882 14.0584795,19.4453882 13.9863827,17.7656537 L13.9883854,14.6256862 L10.7424263,14.6256862 L10.6699289,16.0863249 C10.6699289,16.0863249 10.7424263,16.4514846 10.0931544,16.5245165 L6.05613294,16.5245165 C6.05613294,16.5245165 5.40726155,16.4514846 5.33516473,15.5016637 L5.26306791,1.04134046 C5.26306791,1.04134046 5.11847373,0.0188933633 3.96532514,0.0188933633 L0,0.0188933633" id="Fill-1"></path>
                            <path d="M13.6507319,0.0188933633 L13.6507319,3.06189067 L15.6209778,3.06189067 L15.6209778,18.0577814 C15.6209778,18.0577814 15.5252493,19.2262924 16.6303333,19.4453882 L26.5796946,19.4453882 C26.5796946,19.4453882 27.9731659,19.4214499 27.9731659,18.1068751 L27.9731659,14.5035605 L24.7051772,14.5035605 L24.7051772,15.8664176 C24.7051772,15.8664176 24.6579137,16.6454249 23.8400154,16.4514846 L19.5626712,16.5001725 C19.5626712,16.5001725 18.7932379,16.6454249 18.8889665,15.5746956 L18.8889665,10.9493397 L25.2334867,10.9493397 L25.2334867,7.97937432 L18.9374316,7.97937432 L18.9374316,3.01320271 L23.2632408,3.01320271 C23.2632408,3.01320271 23.984209,3.01320271 23.8884805,3.35442414 L23.8884805,4.37687124 L27.2049342,4.37687124 L27.2049342,1.26043626 C27.2049342,1.26043626 27.4933215,0.286677126 26.0986485,0.0188933633 L13.6507319,0.0188933633" id="Fill-2"></path>
                            <polyline id="Fill-3" points="65.800365 0.0188933633 65.800365 2.96492049 67.6264173 2.96492049 67.6264173 16.4514846 65.800365 16.4514846 65.800365 19.4453882 73.0100471 19.4453882 73.0100471 16.4027966 71.0870646 16.4027966 71.0870646 2.96492049 73.0100471 2.96492049 73.0100471 0.0188933633 65.800365 0.0188933633"></polyline>
                            <path d="M73.8271444,4.47384142 L76.8075468,4.47384142 L76.8075468,3.64614615 C76.8075468,3.64614615 76.5191595,2.81845089 77.6242436,2.96492049 L80.6523101,2.96492049 L80.6523101,19.4453882 L84.0644924,19.4453882 L84.0644924,2.94747397 L86.8526366,2.94747397 C86.8526366,2.94747397 87.4294112,2.91623253 87.3809461,3.4031121 L87.3809461,4.47384142 L90.7947306,4.47384142 L90.7947306,1.35781218 C90.7947306,1.35781218 90.9385237,-0.151514486 89.303528,0.0188933633 L74.9330295,0.0188933633 C74.9330295,0.0188933633 73.8752089,-0.102826529 73.8271444,0.968308523 L73.8271444,4.47384142" id="Fill-4"></path>
                            <path d="M39.797445,5.8861979 C39.749781,9.09960306 37.3942177,9.14788528 37.3942177,9.14788528 L33.9820353,9.14788528 L33.9820353,3.06189067 L37.5868764,3.06189067 C40.0381683,3.5974582 39.797445,5.8861979 39.797445,5.8861979 Z M60.3694717,0.00550417516 C60.3694717,0.00550417516 59.3116511,-0.151514486 59.167858,1.21174831 L59.167858,13.2867674 L50.3231803,0.0188933633 L46.9594631,0.0188933633 L46.9594631,15.8181354 C46.9594631,15.8181354 47.1521218,16.4514846 46.4784171,16.4514846 L44.1713188,16.4514846 C44.1713188,16.4514846 43.4988157,16.4997668 42.9693046,15.5746956 L41.3835751,12.5073543 C41.3835751,12.5073543 40.7591365,11.1440915 40.1819614,10.9006517 C40.1819614,10.9006517 43.6430093,9.73214077 43.3061569,5.64235239 C43.3061569,5.64235239 43.6430093,0.919620566 38.9314821,0.0188933633 L28.7425992,0.00550417516 L28.7425992,3.01320271 L30.6655816,3.01320271 L30.6655816,19.4453882 L34.0292988,19.4453882 L34.0292988,12.2152266 L36.2410691,12.2152266 C36.2410691,12.2152266 37.2980886,12.1665386 37.5868764,12.8485757 L40.0854318,17.8147473 C40.0854318,17.8147473 40.5664778,19.3232625 41.9603496,19.4453882 L48.978174,19.4453882 C48.978174,19.4453882 50.6119681,19.4697321 50.7084977,17.8147473 L50.7084977,5.93448013 L59.4077802,19.4453882 L62.6769705,19.4453882 L62.6769705,3.45139433 C62.6769705,3.45139433 62.6281049,2.76976293 63.300608,2.81845089 L64.2142349,2.81845089 L64.2142349,0.00550417516 L60.3694717,0.00550417516 Z" id="Fill-5"></path>
                        </g>
                    </g>
                </g>
                <g id="Group">
                    <path d="M6.04998261,12.2331652 C5.63815652,12.559087 5.11790435,12.7534174 4.55228696,12.7534174 C3.21835652,12.7534174 2.13731304,11.6723739 2.13731304,10.3387652 C2.13731304,9.81722609 2.3030087,9.33397391 2.58388696,8.93952174 L8.86938261,2.6344 C9.27734783,2.31973913 9.7885913,2.13248696 10.3435913,2.13248696 C11.6775217,2.13248696 12.7582435,3.21385217 12.7582435,4.54746087 C12.7582435,5.16938261 12.5236957,5.73596522 12.1376087,6.16387826 C12.1376087,6.16387826 11.4815826,6.93991304 11.7132348,7.6351913 C11.7132348,7.6351913 11.9059565,9.06371304 13.6050609,8.71623478 L19.3194696,3.11797391 L21.4368348,1.12383478 C21.8782609,0.682408696 22.4882783,0.409573913 23.1613565,0.409573913 C24.5088,0.409573913 25.6004609,1.50155652 25.6004609,2.84867826 C25.6004609,3.52207826 25.3279478,4.13209565 24.8862,4.5732 L8.74036522,20.8390435 C8.74036522,20.8390435 8.2378087,21.495713 8.74036522,22.383713 C8.74036522,22.383713 9.08784348,23.271713 10.4008609,22.9628435 L24.5313217,9.02510435 L28.4658696,5.20316522 C28.8921739,4.83766957 29.4462087,4.61663478 30.0520435,4.61663478 C31.3998087,4.61663478 32.4911478,5.70861739 32.4911478,7.05606087 C32.4911478,7.62167826 32.2984261,8.14225217 31.9750783,8.5560087 L30.1681913,10.5308435 C30.1681913,10.5308435 29.5498087,11.379913 30.3998435,12.2682348 C30.3998435,12.2682348 31.3576609,13.1218087 32.351513,12.4847652 C32.8971826,12.134713 33.427087,11.7187043 34.1262261,11.7187043 C35.4733478,11.7187043 36.5656522,12.810687 36.5656522,14.1581304 C36.5656522,14.7983913 36.3185565,15.3804174 35.9150957,15.8157304 L26.616513,25.3182957 C26.616513,25.3182957 26.0100348,26.298313 26.9884435,26.9639913 C26.9884435,26.9639913 27.6200174,27.6438261 28.5855565,27.1325826 L30.9297478,24.9299565 C31.3496174,24.5895565 31.8843478,24.3862174 32.4663739,24.3862174 C33.8134957,24.3862174 34.9051565,25.4772348 34.9051565,26.825 C34.9051565,27.3298087 34.751687,27.7995478 34.4888261,28.1885304 L28.3706348,34.4453913 C27.9356435,34.8475652 27.3536174,35.0936957 26.7136783,35.0936957 C25.3665565,35.0936957 24.2742522,34.001713 24.2742522,32.654913 C24.2742522,32.1491391 24.4277217,31.6803652 24.6905826,31.2913826 C24.6905826,31.2913826 26.0631217,29.9394348 25.0332348,28.8670783 C25.0332348,28.8670783 24.1835217,27.7442087 22.9866522,28.8670783 L15.6857478,36.0125826 C15.2423913,36.4700957 14.6214348,36.754513 13.9345217,36.754513 C12.5870783,36.754513 11.4947739,35.661887 11.4947739,34.3144435 C11.4947739,33.6950957 11.7257826,33.1294783 12.1067217,32.6996348 L28.5466261,16.0129565 C28.5466261,16.0129565 29.0871478,14.8550174 28.3921913,14.3913913 C28.3921913,14.3913913 27.4655826,13.4264957 26.268713,14.3913913 L8.67054783,31.9406522 C8.22912174,32.3817565 7.61942609,32.654913 6.94570435,32.654913 C5.59890435,32.654913 4.5066,31.5629304 4.5066,30.215487 C4.5066,29.717113 4.65653043,29.2531652 4.91327826,28.8670783 L7.00297391,26.5534522 C7.00297391,26.5534522 7.64645217,25.462113 6.80993043,24.6233391 C6.80993043,24.6233391 6.23047826,23.8125565 5.03393043,24.4296522 L4.5008087,24.9212696 C4.05906087,25.3617304 3.4500087,25.634887 2.77596522,25.634887 C1.42916522,25.634887 0.33686087,24.5429043 0.33686087,23.1951391 C0.33686087,22.5220609 0.610017391,21.9123652 1.05144348,21.4706174 L10.2461043,12.1906957 C10.2461043,12.1906957 10.8638435,10.8011043 9.97584348,10.3378 C9.97584348,10.3378 9.16441739,9.64252174 8.16123478,10.2988696 L6.04998261,12.2331652" id="Fill-34" fill="#000000"></path>
                    <path d="M6.04998261,12.2331652 C5.63815652,12.559087 5.11790435,12.7534174 4.55228696,12.7534174 C3.21835652,12.7534174 2.13731304,11.6723739 2.13731304,10.3387652 C2.13731304,9.81722609 2.3030087,9.33397391 2.58388696,8.93952174 L8.86938261,2.6344 C9.27734783,2.31973913 9.7885913,2.13248696 10.3435913,2.13248696 C11.6775217,2.13248696 12.7582435,3.21385217 12.7582435,4.54746087 C12.7582435,5.16938261 12.5236957,5.73596522 12.1376087,6.16387826 C12.1376087,6.16387826 11.4815826,6.93991304 11.7132348,7.6351913 C11.7132348,7.6351913 11.9059565,9.06371304 13.6050609,8.71623478 L19.3194696,3.11797391 L21.4368348,1.12383478 C21.8782609,0.682408696 22.4882783,0.409573913 23.1613565,0.409573913 C24.5088,0.409573913 25.6004609,1.50155652 25.6004609,2.84867826 C25.6004609,3.52207826 25.3279478,4.13209565 24.8862,4.5732 L8.74036522,20.8390435 C8.74036522,20.8390435 8.2378087,21.495713 8.74036522,22.383713 C8.74036522,22.383713 9.08784348,23.271713 10.4008609,22.9628435 L24.5313217,9.02510435 L28.4658696,5.20316522 C28.8921739,4.83766957 29.4462087,4.61663478 30.0520435,4.61663478 C31.3998087,4.61663478 32.4911478,5.70861739 32.4911478,7.05606087 C32.4911478,7.62167826 32.2984261,8.14225217 31.9750783,8.5560087 L30.1681913,10.5308435 C30.1681913,10.5308435 29.5498087,11.379913 30.3998435,12.2682348 C30.3998435,12.2682348 31.3576609,13.1218087 32.351513,12.4847652 C32.8971826,12.134713 33.427087,11.7187043 34.1262261,11.7187043 C35.4733478,11.7187043 36.5656522,12.810687 36.5656522,14.1581304 C36.5656522,14.7983913 36.3185565,15.3804174 35.9150957,15.8157304 L26.616513,25.3182957 C26.616513,25.3182957 26.0100348,26.298313 26.9884435,26.9639913 C26.9884435,26.9639913 27.6200174,27.6438261 28.5855565,27.1325826 L30.9297478,24.9299565 C31.3496174,24.5895565 31.8843478,24.3862174 32.4663739,24.3862174 C33.8134957,24.3862174 34.9051565,25.4772348 34.9051565,26.825 C34.9051565,27.3298087 34.751687,27.7995478 34.4888261,28.1885304 L28.3706348,34.4453913 C27.9356435,34.8475652 27.3536174,35.0936957 26.7136783,35.0936957 C25.3665565,35.0936957 24.2742522,34.001713 24.2742522,32.654913 C24.2742522,32.1491391 24.4277217,31.6803652 24.6905826,31.2913826 C24.6905826,31.2913826 26.0631217,29.9394348 25.0332348,28.8670783 C25.0332348,28.8670783 24.1835217,27.7442087 22.9866522,28.8670783 L15.6857478,36.0125826 C15.2423913,36.4700957 14.6214348,36.754513 13.9345217,36.754513 C12.5870783,36.754513 11.4947739,35.661887 11.4947739,34.3144435 C11.4947739,33.6950957 11.7257826,33.1294783 12.1067217,32.6996348 L28.5466261,16.0129565 C28.5466261,16.0129565 29.0871478,14.8550174 28.3921913,14.3913913 C28.3921913,14.3913913 27.4655826,13.4264957 26.268713,14.3913913 L8.67054783,31.9406522 C8.22912174,32.3817565 7.61942609,32.654913 6.94570435,32.654913 C5.59890435,32.654913 4.5066,31.5629304 4.5066,30.215487 C4.5066,29.717113 4.65653043,29.2531652 4.91327826,28.8670783 L7.00297391,26.5534522 C7.00297391,26.5534522 7.64645217,25.462113 6.80993043,24.6233391 C6.80993043,24.6233391 6.23047826,23.8125565 5.03393043,24.4296522 L4.5008087,24.9212696 C4.05906087,25.3617304 3.4500087,25.634887 2.77596522,25.634887 C1.42916522,25.634887 0.33686087,24.5429043 0.33686087,23.1951391 C0.33686087,22.5220609 0.610017391,21.9123652 1.05144348,21.4706174 L10.2461043,12.1906957 C10.2461043,12.1906957 10.8638435,10.8011043 9.97584348,10.3378 C9.97584348,10.3378 9.16441739,9.64252174 8.16123478,10.2988696 L6.04998261,12.2331652 Z" id="Stroke-35" stroke="#FFFFFF" stroke-width="0.96"></path>
                    <path d="M10.3059478,12.1253826 C10.3059478,12.1253826 10.9240087,10.7354696 10.035687,10.2721652 C10.035687,10.2721652 9.22490435,9.57688696 8.22107826,10.2335565 L6.10982609,12.1675304 C5.69864348,12.4934522 5.17774783,12.6881043 4.61213043,12.6881043 C3.27852174,12.6881043 2.19747826,11.6067391 2.19747826,10.2731304 C2.19747826,9.7515913 2.36285217,9.26833913 2.64405217,8.87388696 L8.92954783,2.56876522 C9.3371913,2.25410435 9.84843478,2.06685217 10.4034348,2.06685217 C11.7373652,2.06685217 12.8184087,3.14821739 12.8184087,4.48182609 C12.8184087,5.10374783 12.5835391,5.67033043 12.1974522,6.09824348 C12.1974522,6.09824348 11.0732957,7.63583478 11.2895043,8.45755652 C11.2895043,8.45755652 11.3554609,11.3805565 10.3059478,12.1253826" id="Fill-36" fill="#FFFFFF"></path>
                    <path d="M10.4034348,2.29850435 C9.91632174,2.29850435 9.4555913,2.45551304 9.07111304,2.75215652 L2.80813913,9.03733043 C2.56876522,9.37869565 2.42913043,9.81593913 2.42913043,10.2731304 C2.42913043,11.4770783 3.7756087,11.8940522 4.68902609,11.8123304 C5.17774783,11.7685739 5.58153043,11.5459304 5.97051304,11.2380261 L8.0643913,10.062713 C8.41894783,9.82752174 8.75966957,9.71973913 9.10714783,9.71973913 C9.66633043,9.71973913 10.0662522,10.0015826 10.1637391,10.0781565 C10.5572261,10.292113 10.7074783,10.6418435 10.7409391,10.9970435 C11.012487,10.1505478 11.0681478,9.02446087 11.0584957,8.4878 C10.8503304,7.58306957 11.8901913,6.12655652 12.0105217,5.96150435 C12.3872783,5.54163478 12.5867565,5.02266957 12.5867565,4.48182609 C12.5867565,3.2782 11.6073826,2.29850435 10.4034348,2.29850435 Z M4.61213043,12.9197565 C3.15304348,12.9197565 1.96582609,11.7325391 1.96582609,10.2731304 C1.96582609,9.71909565 2.13506087,9.18854783 2.4551913,8.7394 L8.76546087,2.40532174 C9.25450435,2.02534783 9.81304348,1.8352 10.4034348,1.8352 C11.8628435,1.8352 13.0500609,3.02273913 13.0500609,4.48182609 C13.0500609,5.13785217 12.8084348,5.76685217 12.3692609,6.25332174 C12.0899913,6.63844348 11.3593217,7.81311304 11.5134348,8.39867826 L11.5211565,8.4524087 C11.5237304,8.5766 11.5768174,11.5079652 10.440113,12.3142435 L9.7548087,12.8003913 L10.0942435,12.0314348 C10.0993913,12.0198522 10.598087,10.9365565 9.92854783,10.4777565 L9.88511304,10.4478348 C9.88286087,10.4459043 9.56369565,10.1830435 9.10714783,10.1830435 C8.85104348,10.1830435 8.59558261,10.265087 8.34784348,10.4272435 L6.26651304,12.3383739 C5.78905217,12.7173826 5.20606087,12.9197565 4.61213043,12.9197565 Z" id="Fill-37" fill="#FFFFFF"></path>
                    <path d="M8.74036522,20.8390435 L24.8865217,4.5732 C25.3276261,4.13177391 25.6001391,3.52175652 25.6001391,2.84867826 C25.6001391,1.50123478 24.5088,0.409573913 23.1616783,0.409573913 C22.4879565,0.409573913 21.8782609,0.682408696 21.4371565,1.12383478 L19.3188261,3.11797391 L13.6050609,8.71591304 C11.9062783,9.06371304 11.712913,7.6351913 11.712913,7.6351913 C11.5337043,6.92607826 12.137287,6.16355652 12.137287,6.16355652 C12.137287,6.16355652 10.952,7.47303478 11.0723304,9.28346087 C11.0723304,9.28346087 10.9992957,11.4304261 10.2461043,12.1906957 L1.05144348,21.4706174 C0.610017391,21.9123652 0.337182609,22.5220609 0.337182609,23.1951391 C0.337182609,24.5429043 1.42884348,25.634887 2.77628696,25.634887 C3.44936522,25.634887 4.05938261,25.3617304 4.50113043,24.9212696 L5.03393043,24.4296522 C6.2308,23.8125565 6.80993043,24.6233391 6.80993043,24.6233391 C7.73621739,25.2793652 7.00297391,26.5534522 7.00297391,26.5534522 C7.00297391,26.5534522 8.47396522,25.0142522 8.1679913,22.2434348 C8.1679913,22.2434348 8.4195913,21.3046 8.74036522,20.8390435" id="Fill-38" fill="#FFFFFF"></path>
                    <path d="M11.5044261,7.77965217 C11.3609304,8.21013913 11.2666609,8.7155913 11.3036609,9.26769565 C11.301087,9.38255652 11.2184,11.5385304 10.4108348,12.3538174 L1.21585217,21.6340609 C0.798556522,22.0516783 0.568834783,22.6060348 0.568834783,23.1951391 C0.568834783,24.4135652 1.55914783,24.9399304 2.77628696,24.9399304 C3.3653913,24.9399304 3.73088696,24.9418609 4.22733043,24.6722435 L4.92743478,24.2243826 C5.25914783,24.0532174 5.5812087,23.9663478 5.88428696,23.9663478 C6.51457391,23.9663478 6.87363478,24.3366696 6.97144348,24.4541043 C7.2947913,24.6938 7.44568696,25.005887 7.49201739,25.3263391 C7.8053913,24.6243043 8.20209565,23.5046522 8.05602609,22.1832696 C8.06664348,22.1433739 8.21013913,21.199713 8.54957391,20.7077739 L24.7217913,4.4104 C25.1394087,3.99246087 25.3688087,3.43810435 25.3688087,2.84867826 C25.3688087,1.63121739 24.3784957,0.641226087 23.1616783,0.641226087 C22.5716087,0.641226087 22.0172522,0.870947826 21.6009217,1.2876 L19.4777652,3.28656522 L13.7186348,8.92922609 L13.651713,8.94306087 C13.4596348,8.98231304 13.2752783,9.00193913 13.104113,9.00193913 C12.0523478,9.00193913 11.6147826,8.25775652 11.5044261,7.77965217 Z M5.86691304,28.0775304 L6.8022087,26.4379478 C6.82762609,26.3935478 7.41930435,25.2050435 6.67737391,24.6793217 C6.66868696,24.6677391 6.37172174,24.4296522 5.88428696,24.4296522 C5.66357391,24.4296522 5.4225913,24.494 5.16745217,24.6220522 L4.65813913,25.0908261 C4.15976522,25.5885565 3.48893913,25.8665391 2.77628696,25.8665391 C1.30368696,25.8665391 0.105530435,24.6683826 0.105530435,23.1951391 C0.105530435,22.482487 0.383191304,21.8119826 0.887356522,21.3068522 L10.0816957,12.0275739 C10.6466696,11.4571304 10.8213739,9.84746957 10.841,9.27541739 C10.7158435,7.41222609 11.9403826,6.08698261 11.9915391,6.03067826 L12.3145652,6.31284348 C12.3087739,6.31992174 11.7949565,7.00651304 11.9326609,7.56183478 C11.9564696,7.69857391 12.107687,8.53895652 13.104113,8.53895652 C13.225087,8.53895652 13.355713,8.5264087 13.4930957,8.50163478 L19.1566696,2.95227826 L21.2782174,0.954921739 C21.7772348,0.455904348 22.4477391,0.177921739 23.1616783,0.177921739 C24.6339565,0.177921739 25.832113,1.37607826 25.832113,2.84867826 C25.832113,3.56165217 25.5544522,4.23247826 25.0499652,4.73728696 L8.90477391,21.002487 C8.66926087,21.3499652 8.45401739,22.0819217 8.40318261,22.2624174 C8.69693043,25.0795652 7.23333913,26.6474 7.1706,26.7136783 L5.86691304,28.0775304 Z" id="Fill-39" fill="#FFFFFF"></path>
                    <path d="M30.1202522,10.4767913 L31.9271391,8.50195652 C32.2508087,8.08852174 32.4435304,7.56730435 32.4435304,7.00168696 C32.4435304,5.65456522 31.3518696,4.56290435 30.0044261,4.56290435 C29.398913,4.56290435 28.8445565,4.78361739 28.4182522,5.14911304 L24.4837043,8.97073043 L10.3529217,22.9084696 C9.03990435,23.2176609 8.69274783,22.3293391 8.69274783,22.3293391 C8.19051304,21.4416609 8.69274783,20.7849913 8.69274783,20.7849913 C8.05184348,21.4271826 8.04283478,23.8077304 8.04283478,23.8077304 C8.09431304,25.3041391 6.95503478,26.4990783 6.95503478,26.4990783 L4.86566087,28.8127043 C4.6085913,29.1994348 4.45898261,29.6624174 4.45898261,30.1614348 C4.45898261,31.5088783 5.55096522,32.6008609 6.89808696,32.6008609 C7.5718087,32.6008609 8.18118261,32.3277043 8.62293043,31.8866 L26.2210957,14.3376609 C27.4176435,13.3724435 28.3445739,14.3376609 28.3445739,14.3376609 C28.9941652,14.9724522 28.498687,15.9592261 28.498687,15.9592261 C28.498687,15.9592261 29.4600435,14.5181565 29.4082435,12.8151913 C29.4082435,12.8151913 29.4732348,11.098713 30.1202522,10.4767913" id="Fill-40" fill="#FFFFFF"></path>
                    <path d="M8.4195913,22.3486435 C8.3266087,22.9416087 8.2970087,23.5664261 8.29572174,23.8949217 C8.34977391,25.4614696 7.19312174,26.6934087 7.14421739,26.7455304 L5.05902609,29.0543304 C4.83895652,29.3889391 4.71186957,29.8110609 4.71186957,30.2470174 C4.71186957,31.4654435 5.70572174,32.0857565 6.91932174,31.9921304 C7.48075652,31.9486957 7.50874783,31.9921304 8.06793043,31.5928522 L26.0792087,14.2598 C26.492,13.9245478 26.905113,13.7633565 27.3249826,13.7633565 C27.9716783,13.7633565 28.416,14.1510522 28.513487,14.2443565 C28.7071739,14.3791652 28.823,14.5529043 28.8863826,14.7401565 C29.0681652,14.2263391 29.2187391,13.5864 29.1981478,12.9084957 C29.2010435,12.8187304 29.2744,11.0749043 29.9809391,10.3960348 L31.7781739,8.43213913 C32.0719217,8.05506087 32.2334348,7.58532174 32.2334348,7.08791304 C32.2334348,5.87077391 31.2428,4.88078261 30.0256609,4.88078261 C29.4989739,4.88078261 28.9893391,5.069 28.5900609,5.4110087 L24.6664522,9.22329565 L10.4903043,23.2054348 L10.4272435,23.2205565 C10.2258348,23.2678522 10.0324696,23.2916609 9.85229565,23.2916609 C8.81951304,23.2923043 8.51064348,22.5326783 8.49809565,22.5005043 C8.46881739,22.4487043 8.44307826,22.3981913 8.4195913,22.3486435 Z M6.91932174,32.9184174 C5.44672174,32.9184174 4.24856522,31.7205826 4.24856522,30.2470174 C4.24856522,29.719687 4.40267826,29.2094087 4.69417391,28.7705565 L6.80413913,26.4302261 C6.81893913,26.4141391 7.88003478,25.2793652 7.83241739,23.9016783 C7.83338261,23.6394609 7.86169565,21.3975826 8.54957391,20.7077739 L8.89769565,21.0118174 C8.88225217,21.0327304 8.49938261,21.5661739 8.9153913,22.3016696 C8.93694783,22.349287 9.14511304,22.8286783 9.85229565,22.8286783 C9.97873913,22.8286783 10.1151565,22.8135565 10.2586522,22.783313 L24.3421391,8.89222609 L28.2782957,5.069 C28.7715217,4.64526957 29.3882957,4.41715652 30.0256609,4.41715652 C31.4982609,4.41715652 32.6964174,5.61531304 32.6964174,7.08791304 C32.6964174,7.68988696 32.5011217,8.25775652 32.1311217,8.73103478 L30.3123304,10.7190609 C29.8268261,11.1868696 29.6781826,12.4583826 29.6611304,12.9101043 C29.7145391,14.6513565 28.7535043,16.1126957 28.7126435,16.1738261 L28.3098261,15.9476435 C28.3143304,15.9379913 28.6772522,15.1902696 28.2374348,14.6166087 L28.1988261,14.584113 C28.1959304,14.5815391 27.8423391,14.2263391 27.3249826,14.2263391 C27.0138609,14.2263391 26.6982348,14.3534261 26.3880783,14.6040609 L8.8076087,32.1365913 C8.3028,32.6404348 7.63229565,32.9184174 6.91932174,32.9184174 Z" id="Fill-41" fill="#FFFFFF"></path>
                    <path d="M26.5000435,25.3182957 L35.7992696,15.8157304 C36.2027304,15.3807391 36.4495043,14.7983913 36.4495043,14.1581304 C36.4495043,12.810687 35.3578435,11.7187043 34.0104,11.7187043 C33.3112609,11.7187043 32.7816783,12.134713 32.2360087,12.4844435 C31.241513,13.1218087 30.2840174,12.2682348 30.2840174,12.2682348 C29.4343043,11.379913 30.1202522,10.4767913 30.1202522,10.4767913 C29.413713,10.9758087 29.3808957,12.7862348 29.3808957,12.7862348 C29.3808957,14.3016261 28.4308,16.0132783 28.4308,16.0132783 L11.9908957,32.6989913 C11.6102783,33.1294783 11.3792696,33.6950957 11.3792696,34.3144435 C11.3792696,35.661887 12.4712522,36.754513 13.8180522,36.754513 C14.5056087,36.754513 15.1262435,36.4700957 15.5699217,36.0125826 L22.8711478,28.8670783 C24.0680174,27.7442087 24.917087,28.8670783 24.917087,28.8670783 C25.9469739,29.9394348 24.5750783,31.2913826 24.5750783,31.2913826 C24.5750783,31.2913826 26.419287,29.4542522 26.0061739,27.8011565 C26.0061739,27.8011565 25.7935043,26.0396348 26.5000435,25.3182957" id="Fill-42" fill="#FFFFFF"></path>
                    <path d="M29.7232261,11.8068609 C29.6460087,12.1948783 29.6167304,12.5774261 29.6125478,12.7907391 C29.6125478,14.3437739 28.6730696,16.0538174 28.6334957,16.1255652 L28.5958522,16.1760783 L12.1556261,32.8617913 C11.8071826,33.2556 11.6109217,33.7755304 11.6109217,34.3144435 C11.6109217,35.5325478 12.5709913,35.9308609 13.7884522,35.9308609 C14.3907478,35.9308609 14.798713,35.7217304 15.2185826,35.2886696 L22.709313,28.7017043 C23.1098783,28.325913 23.5207391,28.1367304 23.9338522,28.1367304 C24.6468261,28.1367304 25.0837478,28.7036348 25.102087,28.7274435 C25.3527217,28.9880522 25.479487,29.2618522 25.5242087,29.5314696 C25.7693739,29.0063913 25.9205913,28.4143913 25.7816,27.8574609 C25.7671217,27.7522522 25.5589565,25.9479391 26.3349913,25.1561391 L35.6338957,15.6535739 C36.0090435,15.2491478 36.2175304,14.7163478 36.2175304,14.1581304 C36.2175304,12.9406696 35.2278609,11.9503565 34.0104,11.9503565 C33.4695565,11.9503565 33.0329565,12.2379913 32.5706174,12.5423565 L32.3611652,12.6797391 C32.0783565,12.8605565 31.7723826,12.9522522 31.4519304,12.9522522 C30.7119304,12.9525739 30.1533913,12.4619217 30.1295826,12.4410087 C29.9291391,12.2312348 29.7998,12.0169565 29.7232261,11.8068609 Z M13.8180522,36.9858435 C12.3454522,36.9858435 11.1472957,35.787687 11.1472957,34.3144435 C11.1472957,33.6622783 11.3853826,33.0339217 11.8171565,32.5455217 L28.2425826,15.874287 C28.3600174,15.6538957 29.1495652,14.1224174 29.1495652,12.7862348 C29.1527826,12.5848261 29.3300609,11.1662783 30.0890435,10.3799478 L31.2125565,9.42148696 L30.3049304,10.6167478 C30.2827304,10.6463478 29.7534696,11.3779826 30.4513217,12.107687 C30.4526087,12.107687 30.8985391,12.4892696 31.4519304,12.4892696 C31.6826174,12.4892696 31.9042957,12.4220261 32.1111739,12.2894696 L32.3158,12.1556261 C32.8148174,11.8268087 33.330887,11.4870522 34.0104,11.4870522 C35.483,11.4870522 36.6814783,12.6852087 36.6814783,14.1581304 C36.6814783,14.8337826 36.4282696,15.4785478 35.9694696,15.9730609 L26.6660609,25.4801304 C26.1512783,26.0058522 26.1812,27.3140435 26.2362174,27.773487 C26.653513,29.4349478 24.9479739,31.2418348 24.7520348,31.4422783 L24.4116348,31.1272957 L24.5557739,31.2724 L24.4122783,31.1266522 L24.5725043,31.2881652 L24.42,31.1186087 C24.5406522,30.9947391 25.5718261,29.8837739 24.7501043,29.0276261 C24.7298348,29.0038174 24.4126,28.599713 23.9338522,28.599713 C23.6423565,28.599713 23.338313,28.7461043 23.0297652,29.0359913 L15.7317565,36.1776348 C15.227913,36.6975652 14.5474348,36.9858435 13.8180522,36.9858435 Z" id="Fill-43" fill="#FFFFFF"></path>
                    <path d="M26.6515826,25.0486783 C26.6515826,25.0486783 26.0454261,26.2603478 27.023513,26.9269913 C27.023513,26.9269913 27.655087,27.6055391 28.6203043,27.0949391 L30.9654609,24.8929565 C31.3843652,24.5522348 31.9194174,24.3479304 32.5017652,24.3479304 C33.8485652,24.3479304 34.9408696,25.439913 34.9408696,26.786713 C34.9408696,27.2921652 34.7867565,27.7615826 34.5242174,28.1512087 L28.4053826,34.4071043 C27.970713,34.8102435 27.3883652,35.0566957 26.7487478,35.0566957 C25.4016261,35.0566957 24.310287,33.964713 24.310287,32.6172696 C24.310287,32.1121391 24.4766261,31.6514087 24.7262957,31.2537391 C25.143913,30.5864522 25.143913,30.5864522 25.143913,30.5864522 C25.143913,30.5864522 25.9350696,29.524713 25.8826261,27.7779913 C25.8826261,27.7779913 25.8826261,25.6638435 26.6515826,25.0486783" id="Fill-44" fill="#FFFFFF"></path>
                    <path d="M26.286087,26.2738609 C26.152887,26.8401217 26.1142783,27.4646174 26.1142783,27.7779913 C26.1686522,29.5778 25.3643043,30.6787913 25.3302,30.7244783 L24.9225565,31.3763217 C24.6699913,31.7804261 24.5416174,32.1974 24.5416174,32.6172696 C24.5416174,33.8344087 25.5242087,34.497513 26.7410261,34.497513 C27.2989217,34.497513 27.5843043,34.4032435 27.9932348,34.0242348 L34.3582,27.9890522 C34.578913,27.6560522 34.7088957,27.2287826 34.7088957,26.786713 C34.7088957,25.5695739 33.7189043,24.5799043 32.5017652,24.5799043 C31.9959913,24.5799043 31.5027652,24.7546087 31.1115304,25.072487 L28.7287304,27.299887 C28.4562174,27.4433826 28.1808087,27.5170609 27.9095826,27.5170609 C27.3384957,27.5170609 26.9652783,27.1930696 26.8745478,27.1062 C26.5421913,26.8729391 26.364913,26.5772609 26.286087,26.2738609 Z M26.7487478,35.2886696 C25.2761478,35.2886696 24.078313,34.0895478 24.078313,32.6172696 C24.078313,32.1089217 24.2304957,31.6092609 24.529713,31.130513 L24.9479739,30.4629043 C24.9656696,30.4381304 25.7002,29.4224 25.6512957,27.7847478 C25.6512957,27.5502 25.6751043,25.5332174 26.5068,24.8678609 L27.319513,24.2179478 L26.8587826,25.1516348 C26.8381913,25.1944261 26.3578348,26.1927826 27.1541391,26.7355565 L27.1933913,26.7693391 C27.2033652,26.7796348 27.4710522,27.0540783 27.9095826,27.0540783 C28.0958696,27.0540783 28.2895565,27.0035652 28.4851739,26.9041478 L30.8071652,24.7237217 C31.2926696,24.3283043 31.8898174,24.1166 32.5017652,24.1166 C33.9743652,24.1166 35.1722,25.3144348 35.1722,26.786713 C35.1722,27.3217652 35.0142261,27.8381565 34.7159739,28.2805478 L28.5714,34.5689391 C28.0678783,35.0361043 27.4237565,35.2886696 26.7487478,35.2886696 Z" id="Fill-45" fill="#FFFFFF"></path>
                    <path d="M9.102,2.73864348 C9.102,2.73864348 10.3352261,1.73964348 11.6546783,2.6936 C11.6546783,2.6936 12.5745304,3.3538087 12.5742087,4.25081739 C12.5742087,4.25081739 12.6224696,4.7582 12.5265913,5.02170435 C12.5265913,5.02170435 11.5394957,2.09066087 9.102,2.73864348" id="Fill-46" fill="#FFFFFE"></path>
                    <path d="M21.8679652,1.08651304 C21.8679652,1.08651304 23.1011913,0.0875130435 24.4206435,1.04114783 C24.4206435,1.04114783 25.3404957,1.70167826 25.3401739,2.59836522 C25.3401739,2.59836522 25.3884348,3.10606957 25.2928783,3.36957391 C25.2928783,3.36957391 24.3054609,0.438852174 21.8679652,1.08651304" id="Fill-47" fill="#FFFFFE"></path>
                    <path d="M28.7306609,5.32381739 C28.7306609,5.32381739 29.963887,4.32481739 31.2833391,5.27877391 C31.2833391,5.27877391 32.2031913,5.93898261 32.2028696,6.83566957 C32.2028696,6.83566957 32.2511304,7.34337391 32.1552522,7.60687826 C32.1552522,7.60687826 31.1681565,4.67615652 28.7306609,5.32381739" id="Fill-48" fill="#FFFFFE"></path>
                    <path d="M32.7456435,12.4178435 C32.7456435,12.4178435 33.9788696,11.4188435 35.2986435,12.3728 C35.2986435,12.3728 36.2181739,13.0330087 36.2181739,13.9300174 C36.2181739,13.9300174 36.2667565,14.4377217 36.1705565,14.7012261 C36.1705565,14.7012261 35.1834609,11.7701826 32.7456435,12.4178435" id="Fill-49" fill="#FFFFFE"></path>
                    <path d="M31.2000087,25.0046 C31.2000087,25.0046 32.432913,24.041313 33.7523652,24.9952696 C33.7523652,24.9952696 34.6905565,25.5920957 34.7310957,26.564713 C34.7310957,26.564713 34.7208,27.0595478 34.6246,27.3233739 C34.6246,27.3233739 33.6375043,24.3569391 31.2000087,25.0046" id="Fill-50" fill="#FFFFFE"></path>
                    <path d="M2.69038261,11.0720087 C2.69038261,11.0720087 2.87666957,11.4201304 3.45451304,11.6356957 C4.05262609,11.8586609 4.90491304,12.0356174 5.9660087,11.2949739 C5.9660087,11.2949739 8.18504348,9.81658261 9.38641739,9.7458 C9.38641739,9.7458 7.76002609,9.27573913 5.72406087,10.4767913 C5.72406087,10.4767913 4.90105217,11.2650522 2.69038261,11.0720087" id="Fill-51" fill="#FFFFFF"></path>
                    <path d="M0.938191304,24.2726435 C0.938191304,24.2726435 1.82586957,25.361087 3.90623478,24.8163826 C3.90623478,24.8163826 4.32256522,24.6670957 4.74790435,24.3392435 C4.74790435,24.3392435 5.4406087,23.7906783 6.32313913,24.0313391 C6.32313913,24.0313391 5.17292174,23.3064609 3.63082609,24.1314 C3.63082609,24.1314 2.95549565,24.7375565 0.938191304,24.2726435" id="Fill-52" fill="#FFFFFF"></path>
                    <path d="M4.92550435,31.1192522 C4.92550435,31.1192522 5.53133913,32.4062087 7.5274087,31.9145913 C7.5274087,31.9145913 7.88035652,31.8920696 8.71012174,30.9747913 C8.71012174,30.9747913 12.0102,27.7985826 12.4735043,27.3529739 C12.4735043,27.3529739 7.16062609,32.6060087 4.92550435,31.1192522" id="Fill-53" fill="#FFFFFF"></path>
                    <path d="M11.7512,35.0190522 C11.7512,35.0190522 12.2360609,36.2606435 14.3585739,35.8523565 C14.3585739,35.8523565 14.7922783,35.8497826 16.0164957,34.5866348 C16.0164957,34.5866348 19.5810435,31.4522522 19.6363826,31.4039913 C19.6363826,31.4039913 14.4560609,35.9472696 11.7512,35.0190522" id="Fill-54" fill="#FFFFFF"></path>
                    <path d="M24.7687652,33.5252174 C24.7687652,33.5252174 25.5184174,34.907087 27.3507217,34.4251217 C27.3507217,34.4251217 27.7023826,34.300287 28.0784957,33.9431565 L31.9178087,30.3026783 C31.9178087,30.3026783 26.9321391,34.9946 24.7687652,33.5252174" id="Fill-55" fill="#FFFFFF"></path>
                </g>
            </g>
        </g>
    </g>
</svg>